<svg id="Capa_1" data-name="Capa 1" xmlns="http://www.w3.org/2000/svg" xmlns:xlink="http://www.w3.org/1999/xlink" viewBox="0 0 249.39 123.13"><defs><style>.cls-1{fill:none;}.cls-2{fill:url(#Degradado_sin_nombre_3);}.cls-3{fill:url(#Degradado_sin_nombre_3-2);}.cls-4{fill:url(#Degradado_sin_nombre_3-3);}</style><linearGradient id="Degradado_sin_nombre_3" x1="82.68" y1="66.48" x2="166.08" y2="66.48" gradientUnits="userSpaceOnUse"><stop offset="0" stop-color="#cdab68"/><stop offset="0.52" stop-color="#dac672"/><stop offset="1" stop-color="#ffffc9"/></linearGradient><linearGradient id="Degradado_sin_nombre_3-2" x1="82.68" y1="66.49" x2="166.08" y2="66.49" xlink:href="#Degradado_sin_nombre_3"/><linearGradient id="Degradado_sin_nombre_3-3" x1="82.68" y1="62.59" x2="166.08" y2="62.59" xlink:href="#Degradado_sin_nombre_3"/></defs><polygon class="cls-1" points="218.68 103.98 211.68 108.88 212.97 116.88 219.57 112.38 218.68 103.98"/><polygon class="cls-1" points="126.28 89.58 137.07 105.88 147.88 89.88 136.88 71.98 126.28 89.58"/><polygon class="cls-1" points="55.17 112.38 61.67 116.88 63.08 108.88 56.08 103.98 55.17 112.38"/><path class="cls-2" d="M70.46,58.58a72.06,72.06,0,0,1-6.3,36.3,17,17,0,0,0,23.9-1.1,63.53,63.53,0,0,1-9.6-16.3,68.48,68.48,0,0,1-4.8-18.9,12.49,12.49,0,1,0-3.2,0Z"/><path class="cls-3" d="M160.06,93.88A17.09,17.09,0,0,0,184,95a70.64,70.64,0,0,1-6.4-36.2,12.39,12.39,0,0,0,12-12.5,12.55,12.55,0,1,0-15.1,12.2,69.61,69.61,0,0,1-4.8,19A65.52,65.52,0,0,1,160.06,93.88Z"/><path class="cls-4" d="M230.56,56.68h2.1a15.67,15.67,0,0,0,15-16.32v-.08a16.25,16.25,0,0,0-15.2-15.1h0a15.72,15.72,0,0,0-5.6,30.4c-8.8,12.1-28.4,59.1-57.5,52.5-26.4-5.9-41.3-66-42.6-75.4a15.34,15.34,0,1,0-4.2-.2c-1.7,16.9-15.4,73.2-44,74.9-31,1.9-49.3-42.6-56.2-50.9a15.69,15.69,0,1,0-4.9.8,14.75,14.75,0,0,0,2.2-.2l15.27,66.05h179Zm-180.7,61.5-6.5-4.5.9-8.4,7,4.9Zm75.4-11-10.8-16.3,10.6-17.6,11,17.9Zm74.6,3,7-4.9.9,8.4-6.6,4.5Z"/></svg>