<svg id="Capa_1" data-name="Capa 1" xmlns="http://www.w3.org/2000/svg" viewBox="0 0 300 300"><defs><style>.cls-1{fill:#e7b117;}.cls-2{fill:#e8b33a;}.cls-3{fill:#decb7a;}.cls-4{fill:#eccf7c;}.cls-5{fill:#e0d190;}.cls-6{fill:#e8ae3c;}.cls-7{fill:#ebdc94;}.cls-8{fill:#e6ae2b;}</style></defs><path class="cls-1" d="M150,91.55A86.47,86.47,0,0,1,180.3,97l3.3-12.81a100.16,100.16,0,0,0-67.68.16l3.3,12.83A86.6,86.6,0,0,1,150,91.55Z"/><path class="cls-1" d="M194.37,88.77,191,101.85a86.64,86.64,0,1,1-82.46.25L105.17,89a99.81,99.81,0,1,0,89.2-.23Z"/><path class="cls-1" d="M52.14,139.23a105.5,105.5,0,0,1,51.58-55.89l-2.9-11.27A100,100,0,0,0,52.14,139.23Z"/><path class="cls-1" d="M198.73,71.82l-2.91,11.3a105.53,105.53,0,0,1,52,56.11A100,100,0,0,0,198.73,71.82Z"/><path class="cls-1" d="M131,53.37a28.39,28.39,0,0,1-2-7.8,5.14,5.14,0,1,0-1.31,0,29.54,29.54,0,0,1-.49,8.51,28.85,28.85,0,0,1-2.12,6.42,7,7,0,0,0,9.84-.45A28.41,28.41,0,0,1,131,53.37Z"/><path class="cls-1" d="M176.72,40.48a5.17,5.17,0,1,0-6.23,5.06,28,28,0,0,1-5.92,14.56,7,7,0,0,0,9.84.45,28.85,28.85,0,0,1-2.12-6.42,29.48,29.48,0,0,1-.49-8.5A5.16,5.16,0,0,0,176.72,40.48Z"/><path class="cls-1" d="M194.34,31.82A6.47,6.47,0,0,0,192,44.33c-3.59,5-11.72,24.33-23.7,21.63-10.91-2.45-17-27.18-17.54-31a6.47,6.47,0,1,0-1.72-.12c-.72,7-6.34,30.14-18.09,30.84-12.86.76-20.35-17.54-23.19-21a6.46,6.46,0,1,0-2,.33,5.49,5.49,0,0,0,.91-.07l7.81,33.85a104.5,104.5,0,0,1,17.87-4.68,87.34,87.34,0,0,1,35.28,0A103.7,103.7,0,0,1,185,78.61l8.41-33.92a6.56,6.56,0,0,0,.9.07,6.47,6.47,0,0,0,0-12.94ZM119.16,70.09l-2.69-1.86.35-3.48,2.89,2Zm31.08-4.5-4.46-6.72,4.35-7.29,4.54,7.36Zm31.26,4.5L181,66.78l2.89-2,.35,3.48Z"/><path class="cls-2" d="M160,103a79.46,79.46,0,0,0-24.54.74A74.76,74.76,0,0,0,112.65,112,74.91,74.91,0,0,0,80.93,147.7a89.36,89.36,0,0,0-4,11.45,97.34,97.34,0,0,0-2.37,11.94,72.35,72.35,0,0,0,.67,24.17,43.18,43.18,0,0,0,4,11.32c2,3.61,3.94,7.28,5.76,11s3.53,7.49,5.12,11.31,3,7.73,4.41,11.59l-2.59-5.62c-.86-1.88-1.68-3.77-2.61-5.61-1.81-3.7-3.69-7.37-5.68-11s-4-7.15-6.18-10.7a44.17,44.17,0,0,1-4.62-11.78,60,60,0,0,1-1.71-12.49,86.62,86.62,0,0,1,.48-12.58A95.88,95.88,0,0,1,74,158.37a91.6,91.6,0,0,1,4.12-11.91,78.51,78.51,0,0,1,13.59-21.14,79.88,79.88,0,0,1,9.25-8.58,75.32,75.32,0,0,1,10.56-6.84c.92-.5,1.88-.92,2.82-1.39l1.42-.68c.47-.22,1-.41,1.45-.61,1-.4,1.93-.81,2.91-1.19l3-1a77.6,77.6,0,0,1,12.2-2.82A73.09,73.09,0,0,1,160,103Z"/><path class="cls-2" d="M119,254.27A221.33,221.33,0,0,1,97.7,234.5c-.83-.88-1.66-1.77-2.48-2.67S93.61,230,92.86,229c-1.51-1.91-3-3.85-4.41-5.8-2.89-3.88-5.7-7.86-8.62-11.66l1.48-1.13c2.86,4,5.52,8,8.29,12,1.38,2,2.76,4,4.2,5.9.72,1,1.45,1.91,2.23,2.82s1.57,1.83,2.37,2.74A220.7,220.7,0,0,0,119,254.27Z"/><path class="cls-3" d="M156.2,106.94a88.1,88.1,0,0,0-12.61,2.47,100.32,100.32,0,0,0-12.12,4.08,76.53,76.53,0,0,0-21.58,13.17l-1.17,1.06-1.15,1.09c-.77.72-1.48,1.49-2.22,2.25a64,64,0,0,0-10.7,15.6c-.93,1.9-1.76,3.85-2.51,5.84a63.26,63.26,0,0,0-2,6.07q-.87,3.08-1.48,6.23c-.43,2.1-.74,4.23-1.12,6.35l.15-3.23c.07-1.07.15-2.15.26-3.22.22-2.15.54-4.3,1-6.43s1-4.23,1.62-6.32,1.43-4.12,2.29-6.12a53.52,53.52,0,0,1,3-5.86,58.33,58.33,0,0,1,3.58-5.51,60.31,60.31,0,0,1,8.9-9.65,70.5,70.5,0,0,1,22.53-13.07,84,84,0,0,1,12.53-3.46A68.07,68.07,0,0,1,156.2,106.94Z"/><path class="cls-4" d="M167.33,108.41c-.13,1-.24,1.9-.39,2.85s-.3,1.9-.52,2.84a55,55,0,0,1-1.48,5.6,42.85,42.85,0,0,1-5,10.51,37,37,0,0,1-3.66,4.63,23.22,23.22,0,0,1-4.62,3.86,46.54,46.54,0,0,1-5.2,2.75c-1.72.83-3.39,1.67-5,2.6a79.25,79.25,0,0,0-9.29,6.33,95.74,95.74,0,0,0-8.49,7.44,79,79,0,0,0-7.42,8.42,54.67,54.67,0,0,0-5.8,9.46,55.33,55.33,0,0,0-3.78,10.43,53.57,53.57,0,0,0-1.08,5.45c-.14.91-.25,1.86-.34,2.79s-.18,1.84-.24,2.76a50.87,50.87,0,0,0,.58,11.09A62.83,62.83,0,0,0,108.36,219a87.92,87.92,0,0,0,4.56,10.35c.86,1.69,1.77,3.36,2.68,5.05s1.82,3.33,2.8,5a93.77,93.77,0,0,0,14,18,80.8,80.8,0,0,1-15.6-17c-1.09-1.59-2.13-3.26-3.11-4.89s-2-3.28-3-4.95a82.12,82.12,0,0,1-5.13-10.49,56.11,56.11,0,0,1-4.19-23.1l.07-1.49.13-1.48c.09-1,.2-1.93.34-2.92a55.22,55.22,0,0,1,1.1-5.82c.22-1,.5-1.91.77-2.87s.58-1.89.93-2.82a52.32,52.32,0,0,1,2.28-5.48A57.71,57.71,0,0,1,113.33,164a75.58,75.58,0,0,1,7.85-8.72,99.89,99.89,0,0,1,9-7.52A69.45,69.45,0,0,1,140,141.5c1.74-.91,3.53-1.73,5.29-2.49s3.48-1.51,5.06-2.4a21.18,21.18,0,0,0,4.35-3.27,36,36,0,0,0,3.7-4.19,40.09,40.09,0,0,0,3.09-4.7,52.19,52.19,0,0,0,2.46-5.11,56.31,56.31,0,0,0,1.91-5.38c.3-.91.52-1.84.78-2.76S167.1,109.34,167.33,108.41Z"/><path class="cls-5" d="M185.08,109a17.75,17.75,0,0,1,3.28,2.38,19.43,19.43,0,0,1,5.61,9.33,41.65,41.65,0,0,1,1,11.48c0,.37,0,.73,0,1.06a17.93,17.93,0,0,0,.3,4.91c.09.41.19.81.31,1.22a24.8,24.8,0,0,1-4.94-7.42,27.55,27.55,0,0,1-1.84-9.27,40.58,40.58,0,0,1-.09-4.22,10.8,10.8,0,0,0-.83-5.28,16.54,16.54,0,0,0-2.76-4.19m-6.37-3.53a19.71,19.71,0,0,1,3.9,2.79,17.2,17.2,0,0,1,4.09,5.43c1.26,2.86.44,4.07.82,9.1a29.22,29.22,0,0,0,1.93,9.65,26.65,26.65,0,0,0,6.33,8.93,29.82,29.82,0,0,0,3.68,3.05,17,17,0,0,1-3-6.52,21.22,21.22,0,0,1-.24-5.68,42.39,42.39,0,0,0-1-11.84,20.76,20.76,0,0,0-6-9.92,20.46,20.46,0,0,0-10.48-5Z"/><path class="cls-6" d="M168.71,124.51a72.34,72.34,0,0,1-1.6,12.15c-.43,2-1,4-1.52,6s-1.17,3.92-1.85,5.87a44.69,44.69,0,0,1-5.59,11.13,33.15,33.15,0,0,1-4.05,4.82,53.49,53.49,0,0,1-4.74,4.08c-1.64,1.24-3.31,2.42-5,3.6s-3.33,2.33-5,3.48-3.44,2.24-5.19,3.3S130.6,180.94,129,182a19.56,19.56,0,0,0-4.33,3.91,27.56,27.56,0,0,0-3.35,4.9,40,40,0,0,0-3.94,11.4,35,35,0,0,1,2.84-11.94,29.16,29.16,0,0,1,3.18-5.38,20.91,20.91,0,0,1,4.48-4.48c1.72-1.24,3.45-2.28,5.15-3.38s3.36-2.23,5-3.39c3.3-2.34,6.66-4.68,9.84-7.12a47,47,0,0,0,4.55-3.83,35,35,0,0,0,3.85-4.46,46.68,46.68,0,0,0,5.69-10.44c.76-1.86,1.42-3.77,2.1-5.68s1.33-3.82,1.9-5.76A105.11,105.11,0,0,0,168.71,124.51Z"/><path class="cls-7" d="M172.59,123.28a38.47,38.47,0,0,1,3.69,9.59q.67,2.49,1.24,5c.39,1.66.74,3.37,1,5.09a52.64,52.64,0,0,1-1.28,20.67c-.44,1.68-1,3.35-1.54,5q-.45,1.23-.93,2.43c-.32.8-.68,1.61-1,2.41a50.75,50.75,0,0,1-5.46,8.95,70.06,70.06,0,0,1-15.11,14.32c-2.83,2-5.62,3.89-8.3,6a77.77,77.77,0,0,0-7.6,6.63,27.83,27.83,0,0,0-5.61,8.06,24.1,24.1,0,0,0-2.1,9.55,31.16,31.16,0,0,0,1.57,9.81c.5,1.61,1.11,3.18,1.77,4.75.32.79.68,1.54,1,2.32s.74,1.51,1.16,2.25a42.7,42.7,0,0,0,2.69,4.29,46.52,46.52,0,0,0,3.21,3.95,48.81,48.81,0,0,0,7.68,6.73A43.15,43.15,0,0,1,134,246.67c-.47-.73-.86-1.51-1.29-2.26s-.79-1.56-1.14-2.34c-.72-1.56-1.41-3.16-2-4.8a32,32,0,0,1-2-10.33,25.26,25.26,0,0,1,2-10.42,30.49,30.49,0,0,1,5.91-8.81c4.87-5.05,10.58-9.08,16.16-13A69.43,69.43,0,0,0,166.38,181a48.86,48.86,0,0,0,5.37-8.45c.74-1.48,1.38-3.06,2-4.63s1.16-3.16,1.63-4.77a53.46,53.46,0,0,0,1.93-20c-.15-1.69-.4-3.36-.7-5s-.61-3.37-1-5-.75-3.33-1.24-5A26.83,26.83,0,0,0,172.59,123.28Z"/><path class="cls-7" d="M123.44,234.23a29.11,29.11,0,0,1,0-8.84,28.53,28.53,0,0,1,1-4.35,21.11,21.11,0,0,1,1.76-4.13,32.62,32.62,0,0,1,5.51-7.09,28.38,28.38,0,0,1,7.32-5.36l.76,1.7a26.88,26.88,0,0,0-7.13,4.68,32.12,32.12,0,0,0-5.66,6.54,20.31,20.31,0,0,0-1.9,3.89,27.6,27.6,0,0,0-1.2,4.2A28.9,28.9,0,0,0,123.44,234.23Z"/><path class="cls-8" d="M140.75,219.93A72,72,0,0,0,151.26,224a47.67,47.67,0,0,0,10.81,1.88,80.36,80.36,0,0,0,11.08-.08c1.85-.14,3.69-.33,5.5-.61s3.58-.71,5.64-1a20.51,20.51,0,0,1,6.22.17,22.17,22.17,0,0,0,2.56.34,7.2,7.2,0,0,0,2.25-.3,5.55,5.55,0,0,0,3.48-2.29,6,6,0,0,0,.71-4.16,4,4,0,0,0-.8-1.81,4.33,4.33,0,0,0-.38-.4,6.1,6.1,0,0,1-.66-.74,3.43,3.43,0,0,1-.58-1.2,4.41,4.41,0,0,1-.12-1.12,6.3,6.3,0,0,1,1.29-3.53,8,8,0,0,1,2.6-2.31,7.32,7.32,0,0,1,1.57-.64l.42-.15s0,.05,0,.05.08-.17,0-.43a2.38,2.38,0,0,0-.32-.87,2.27,2.27,0,0,0-.49-.61,3,3,0,0,0-.92-.33,8.09,8.09,0,0,0-1.24-.15,3.68,3.68,0,0,1-.66-.06c-.22-.11-.44-.39-.72-1.09h0v-.08c.65-.29,1.23-.54,1.76-.82a5.69,5.69,0,0,0,1.27-.91,2.28,2.28,0,0,0,.61-1q.11-.33.21-.78l.22-.89a4.16,4.16,0,0,0,.14-1.34,1,1,0,0,0-.09-.32l-.18-.18-.65-.56c-.26-.23-.53-.49-.79-.76s-.51-.56-.72-.82-.42-.5-.63-.78a8.44,8.44,0,0,1-1.17-2,5.09,5.09,0,0,1-.33-2.73,5.69,5.69,0,0,1,1-2.35,10.47,10.47,0,0,1,1.56-1.62,16.5,16.5,0,0,1,1.72-1.26,14.17,14.17,0,0,1,1.85-.95A4.38,4.38,0,0,0,205,182a.54.54,0,0,0,.18-.25,1.4,1.4,0,0,0-.1-1,7.8,7.8,0,0,0-.31-.72,6.49,6.49,0,0,0-.39-.62,5.94,5.94,0,0,0-1.1-1.08c-.44-.34-.94-.67-1.5-1.08s-1.07-.81-1.58-1.22c-1-.84-2-1.69-2.89-2.5a39.39,39.39,0,0,1-2.91-2.66,24.67,24.67,0,0,1-2.68-3.12,14.39,14.39,0,0,1-2-3.88,18.57,18.57,0,0,1-.74-4.14l-.32-3.77,0-.22-.27-2.07c-.11-.77-.23-1.54-.35-2.31-.25-1.55-.54-3.08-.87-4.61s-.7-3.06-1.11-4.53a20.42,20.42,0,0,0-1.87-4.06,61.6,61.6,0,0,0-5.31-7.76,86.58,86.58,0,0,0-6.27-7.16c1.27,1,2.52,2,3.71,3s2.38,2.15,3.49,3.3a61.86,61.86,0,0,1,6.26,7.39,22.26,22.26,0,0,1,2.49,4.4c.59,1.55,1.07,3.08,1.53,4.64s.86,3.12,1.23,4.7c.19.79.35,1.58.51,2.38l.22,1.2.11.6.05.31,0,.15v.09c0,.1,0,.2,0,.3v-.22c.42,2.57.47,5.23,1.1,7.18a15.77,15.77,0,0,0,3.71,5.6c.84.88,1.71,1.69,2.66,2.57s1.84,1.82,2.72,2.68c.43.44.87.86,1.32,1.27s.95.81,1.47,1.31a9,9,0,0,1,1.44,1.76,6.46,6.46,0,0,1,.53,1,8.35,8.35,0,0,1,.35,1.07,5,5,0,0,1,.18,1.29,3.31,3.31,0,0,1-.32,1.45,3,3,0,0,1-1,1.19,6.3,6.3,0,0,1-1,.55,9.87,9.87,0,0,0-1.56.76,6.33,6.33,0,0,0-1.29,1.08,3.54,3.54,0,0,0-1.14,2.5,2.6,2.6,0,0,0,.34,1,10.66,10.66,0,0,0,.87,1.22l.56.71c.19.23.35.42.54.61.37.41.73.68,1.34,1.29a4,4,0,0,1,.91,1.39,4,4,0,0,1,.26,1.54,6.53,6.53,0,0,1-.55,2.39c-.14.33-.27.62-.41.92a10.25,10.25,0,0,1-.5,1,4.64,4.64,0,0,1-1.85,1.8,4.45,4.45,0,0,1-2.27.45,4.69,4.69,0,0,1-2-.6h0v-.07h0c.2-.73.45-1,.7-1.14a3.33,3.33,0,0,1,.77,0,12.56,12.56,0,0,1,1.59.12,5.25,5.25,0,0,1,1.77.55,3.41,3.41,0,0,1,.5.34l.12.11.09.08.16.18a5.45,5.45,0,0,1,.57.72,5.14,5.14,0,0,1,.76,1.75,3.36,3.36,0,0,1-.29,2.34,2.78,2.78,0,0,1-1,1,5.24,5.24,0,0,1-.89.39,6,6,0,0,0-1,.48,5.22,5.22,0,0,0-1.53,1.54,3.08,3.08,0,0,0-.59,1.74,1,1,0,0,0,.05.29s0,0,.05.07.5.43.93.9a7.39,7.39,0,0,1,1.67,3.25,9.35,9.35,0,0,1-1,6.83,8.25,8.25,0,0,1-2.47,2.65,10.33,10.33,0,0,1-3.13,1.43,11.1,11.1,0,0,1-3.36.49,23.71,23.71,0,0,1-3.09-.34,16.91,16.91,0,0,0-5.11-.14c-1.7.23-3.62.67-5.57.93s-3.88.47-5.82.57a72,72,0,0,1-11.65-.24,37.44,37.44,0,0,1-21-9.43Z"/><path class="cls-8" d="M140.26,250.61a49.89,49.89,0,0,1,4-6.86,48.74,48.74,0,0,1,5.05-6.17,50.06,50.06,0,0,1,6-5.28,61.63,61.63,0,0,1,6.66-4.5l.86,1.66a60.15,60.15,0,0,0-6.7,4,48.82,48.82,0,0,0-6.16,4.82,46.89,46.89,0,0,0-5.32,5.77A50,50,0,0,0,140.26,250.61Z"/></svg>