<svg id="Capa_1" data-name="Capa 1" xmlns="http://www.w3.org/2000/svg" viewBox="0 0 847.06 300"><defs><style>.cls-1{fill:#e7b117;}.cls-2{fill:#eccf6d;}.cls-3{fill:#e8b33a;}.cls-4{fill:#decb7a;}.cls-5{fill:#eccf7c;}.cls-6{fill:#e0d190;}.cls-7{fill:#e8ae3c;}.cls-8{fill:#ebdc94;}.cls-9{fill:#e6ae2b;}</style></defs><path class="cls-1" d="M475.83,167.72c-6.68,10.35-21.13,29.61-33.27,29.61-8.87,0-8.61-7-5.08-15.33,4.11-9.52,13-20.08,15.73-27.12,1.22-3.32-.25-4.77-7.13-5-3.27,6.21-7,12-10.85,18.22-.58.62-2.83.41-2.31-.62,3.78-6,7.25-11.6,10.46-17.6-7.06-.21-7.58-6.63-5.14-12,1.93-4.35,5.65-8.29,9.7-8.29,5.4,0,4.56,5.8,1.55,13a43.49,43.49,0,0,1-1.93,4.35c10,0,19.92.41,15.61,9.94-4.17,9.73-14,20.91-19,32.1-.77,1.86-2.44,5.38,0,5.59,9.83,0,24.08-19.26,29.35-27.55C474.23,166.06,476.41,166.47,475.83,167.72Z"/><path class="cls-1" d="M502,168.67c-6.32,10.26-20.07,29.54-31.66,29.33-14.32-.2,1.74-31,12.63-49.84,2.55-4.31,12.93-4.31,10.74,0-9.61,17-26.4,47.18-21.48,47.18,9.1,0,22.66-19.29,27.59-27.29C500.43,167.23,502.5,167.64,502,168.67Zm-13.4-29.19c-.12-1.48,1.75-2.87,4.42-3.24s5.14.46,5.26,1.94c.29,1.39-1.59,2.87-4.26,3.24S488.89,140.86,488.61,139.48Z"/><path class="cls-1" d="M549.35,174.71c-4.77,8.95-16.72,25.64-26.57,25.46-7.11,0-7.69-11.16-4.63-19.4,4.33-11.63,9.68-17.43,12.49-25.31,1.15-2.86,1.28-5.35.24-5.32-8.79.23-26.06,30.32-28.34,44.53-1.7,3.22-6.13,3-7.73-2-1.69-20.25,8.56-32.07,15.94-46.74,2.11-4.3,11.75-2.29,9.94,2-2.63,5.19-11.51,20-13.63,24.29,9.11-14.14,18.6-28.69,29.89-28.64,7.22,0,6.91,6.62,3.62,15.21-4.49,11.64-13.52,25.52-16.41,33-.15,1-.15,2.42,1.4,2.42,8,0,17.29-13,21.36-20.32C547.4,173.24,549.77,173.64,549.35,174.71Z"/><path class="cls-1" d="M592.53,172.68c-7.37,13.54-15,26.27-31.47,26.61-11.19.24-18.81-12-15.13-23.81,4.51-14.43,19.7-30.47,38.12-30.47,4,0,4.29,7.39,4,8.86s-.83,5.44-2.1,6.77c-.52.33-1.63,2.75-4.7,1.1-2.63-1.73-1-4.48-.4-5.05,1.11-1.26,1.67-1.35,2.64-3.66,1-2.68,1-3.56,0-3.56-5.77,0-20.25,19.19-26.62,33-3.38,7.3,0,13.6,5.05,13.18,13.58-1.11,20.53-14.11,28.59-24.9C591.07,169.82,593.08,171.79,592.53,172.68Z"/><path class="cls-1" d="M637.05,171c-10.3,13.52-17.63,28.29-34.12,27.89-13.39-.32-16.53-13.76-14.11-24s16.76-29.61,34.85-29.61c5.43,0,7.78,6.4,5.44,12.87-3.65,10.12-10.41,19.07-23.76,13.19-3.79-1.68-5.87,8.19-6.76,11.93-1.6,6.06,1.36,13.79,7,12.48,13.66-3.16,19.48-15.62,28.53-27.27C634.66,167.64,637.4,170,637.05,171Zm-28.94-2.49c3.64,3.15,14.45-1.81,17-10.36.72-2.5,2.53-8.69-.69-8.69C616.94,149.66,604.75,165.63,608.11,168.53Z"/><path class="cls-1" d="M438.12,105.56c-.69-5.32-1.94-15.12-9.75-20.58-7.15-5-15.76-3.55-16.65-3.38-8.49,1.55-16.76,8.61-20.51,11.8-1.18,1-4.12,3.59-4.52,3.22s.82-1.87,1.28-2.57c2.48-3.81,6.15-12.38,3.53-18.41-2.13-4.94-7.84-6.74-9.23-7.19-7-2.2-13.47.52-17.67,2.35-28.82,12.51-41.28,20.55-41.28,20.55-13.69,8.82-12.65,9.27-26,17.66-14.44,9.07-21.85,13.65-31.12,15.77-4.48,1-23.23,4.86-33.78-3.65a22.35,22.35,0,0,1-8-19.47,5.66,5.66,0,0,0-.84-3.59,6.7,6.7,0,0,0-4.36-2.45c-.63-.13-4.7-.9-6.83,1.16-2.74,2.64-.72,8.48.19,11.14,3.46,10,11.38,15.66,13.77,17.26,8.77,5.86,17.46,6.56,23,7a58.79,58.79,0,0,0,28-4.05c9.76-3.71,12.7-5.65,15.22-7.33,4.79-3.18,9.55-6.15,13.47-9.16a304,304,0,0,1,29.71-21,141.84,141.84,0,0,1,27.16-13.35c15.51-5.67,18.28-3.57,19.11-2.59,1.26,1.49,1.26,4.25-1.58,10.92-4.53,10.63-9.76,15.89-17.75,25.8-7,8.69-15,18.65-18.82,26.51-2.21,4.58-6.11,8.47-7.26,13.43a3.65,3.65,0,0,1-1.5,2.45c-1.24.67-2.79,0-3.31-.22-1.88-.64-3.14-2.13-5.68-7.47-3.15-6.63-4.73-9.95-5.17-13.37-.35-2.71-.1-4.09-1.29-5.17-1.94-1.75-6.16-1.3-8.41.86-2.81,2.71-1.87,7.47-1.29,10.35,1.61,8.11,7.12,13.37,10.34,16.38a44.9,44.9,0,0,0,10.78,7.4,84.08,84.08,0,0,0-6.46,17.53,69.44,69.44,0,0,0-2.38,18.75,50.61,50.61,0,0,0,1.63,13.36c3.41,12.38,11.06,19.11,15.19,21.41,1.16.65,4.05,2.26,7,1.4a3.85,3.85,0,0,0,2.38-1.54c1.12-1.95-.74-5-1.28-5.88-1-1.71-2.19-7-4.54-17.43-2.17-9.63-1-17.73-.19-23.61a79.59,79.59,0,0,1,4.55-17.53,66.75,66.75,0,0,0,29,5.56c5.54-.2,25.69-1.63,42.49-17.51C433,143.41,440.39,123.31,438.12,105.56Zm-14.27,16.88c-6.9,15.92-11.7,23.65-19.24,30.81a59,59,0,0,1-22.85,13.36c-12.91,4-23.33,2.16-28.23-.86a6.12,6.12,0,0,1-3-3.45c-.7-2.43.85-5.05,3.45-9.44.49-.83,1.08-1.76,2.26-3.63,1.29-2,2.25-3.5,2.49-3.86,2.66-4.09,6.08-10.28,6.46-10.87a232.93,232.93,0,0,1,17.46-23.93C398,92.13,405.23,89,409.35,87.73c8.33-2.61,12.08-.35,12.94.21,3.82,2.53,4.7,7.33,5.17,10.13C428.7,105.45,428.25,112.3,423.85,122.44Z"/><path class="cls-1" d="M818.21,115.1c-.81-7.67-2.26-15-7.62-18.56s-11-2.66-11.89-.21-.28,4.48,2.86,6.9c0,0,9.8,5.77,9.86,10.4s0,9.75-3.71,13.74-18.65,14.48-25.44,17.5c-6.34,2.83-36.46,15.36-40.36,17-15.25,5.54-42,14.12-44.52,11.22.5-11.5-14.8-20.68-14.13-22,1.69-3.24,2.57-5.2,2.81-6.94.53-3.74,1.13-9-4.57-9-2.81,0-7,1.54-8.4,7.47-.08,2.44,3.81,9.55,4.3,11.88a7.6,7.6,0,0,1-.34,2.65.43.43,0,0,0-.07.1c-4.6,6-12,15.49-15.11,11.87-.91-7.92-13.66-16.8-13-18.08,1.69-3.24,2.57-5.2,2.81-6.94.53-3.74,1.13-9-4.57-9-2.81,0-7,1.54-8.4,7.47-.08,2.44,3.46,9.05,3.95,11.38-1.53,4.34-10.31,16.8-10.31,16.8-.06,1.12,3.48,2.1,4,1,0,0,5.66-8.31,8.71-14.2,2.63,3.11,5.91,6.85,7.39,14.46-3.39,1-7.27,1.35-9.92,2.39-7.87,3.07-11.87,6.24-12.68,10.86-1.44,8.28,2.78,13.32,11.87,13.51,12.43,0,19.87-14.23,21.91-23,.85-1.75,7.44-2.9,12.76-11.17l0,0,0-.06c.46-.71.9-1.49,1.34-2.31l2.14-3.81a39.41,39.41,0,0,1,7.67,16.94c-3.19.06-8.94-.47-12.28.37-8.19,2.05-10.29,5-11.1,9.58-1.44,8.28,2.78,13.32,11.87,13.51,12.43,0,19.52-10.58,21.56-19.38.82-1.71,18.94-3.47,29.66-7.62a29.58,29.58,0,0,0,2.81-1.24v.06s18.57-6.53,25.71-9.41,26.37-12.7,29.5-14.4,19.07-10.73,22.53-13.17S819,122.78,818.21,115.1ZM645.88,147.25c-1.18-.24-1.42-1.17-1.56-3.42a3,3,0,0,1,2.08-3.26c.79,0,1,.8,1.18,3.05C647.5,146.05,647.57,146.94,645.88,147.25Zm-3.68,44.34c-5.7,0-6.62-2.51-6.62-5.88,0-2.43,2.95-5,8.56-6.63,2.47-.71,6.6-2.88,8.38,0C654.08,181.63,648.24,191.59,642.2,191.59Zm38-44.34c-1.18-.24-1.42-1.17-1.56-3.42a3,3,0,0,1,2.08-3.26c.79,0,1,.8,1.18,3.05C681.87,146.05,681.94,146.94,680.25,147.25Zm-3.68,44.34c-5.7,0-6.62-2.51-6.62-5.88,0-2.43.12-4.44,5.72-6,2.47-.71,11.39-.37,11.7.36C688.54,182.77,682.61,191.59,676.57,191.59Z"/><path class="cls-2" d="M460.85,218c0-4.16-.52-5.17-4-5.17v-1.25h11.78v1.25c-3.31,0-3.83,1-3.83,5.17V233.4c0,2.61-.12,5.1-1.68,7.21a9.53,9.53,0,0,1-7.07,3.59c-1.68,0-3.56-.95-3.56-2.72a2.26,2.26,0,0,1,2.44-2.3c2.72,0,2.28,3,4,3a1.6,1.6,0,0,0,1.56-1.44,23.66,23.66,0,0,0,.32-5Z"/><path class="cls-2" d="M494.28,233.6H493c0-5.69-7.13-6-10.64-5.74h-1.83v10.27c0,3.6.49,4.49,4.54,4.49,7.24,0,8.53-1.82,13-7.42l1.06.44-1.28,8.44H472v-1.46c3.51,0,4.13-1.16,4.13-6.09V219.11c0-4.89-.62-6.09-4.13-6.09v-1.47h25.26l1.1,7.6-1.11.67c-3.92-5.2-5.38-6.8-11.92-6.8-4.53,0-4.8.71-4.8,5.06v8.32h1.83c4.17,0,10.37-.76,10.68-5.56h1.25Z"/><path class="cls-2" d="M572.13,233.6h-1.28c0-5.69-7.14-6-10.65-5.74h-1.82v10.27c0,3.6.49,4.49,4.53,4.49,7.25,0,8.54-1.82,13-7.42l1.07.44-1.28,8.44H549.85v-1.46c3.51,0,4.13-1.16,4.13-6.09V219.11c0-4.89-.62-6.09-4.13-6.09v-1.47H575.1l1.1,7.6-1.11.67c-3.91-5.2-5.38-6.8-11.91-6.8-4.53,0-4.8.71-4.8,5.06v8.32h1.82c4.18,0,10.38-.76,10.69-5.56h1.24Z"/><path class="cls-2" d="M516.29,244.08h-1.58l-7.78-24.89c-1.09-3.55-1.87-6.44-6.8-6.17v-1.47h14.09V213c-1.38.09-3.65-.05-3.65,1.64a10.68,10.68,0,0,0,.79,3L517,235.77l6.1-18.8c-.64-2.31-2.07-4.18-5-3.95v-1.47h14.13V213c-1.62,0-4.33-.18-4.33,1.82a9.13,9.13,0,0,0,.34,1.91l5.92,19,5.07-15.64a20.61,20.61,0,0,0,1.18-4.94c0-2.35-2.81-2-4.24-2.17v-1.47H549V213c-5.47-.23-6.3,3.73-7.58,7.46l-8,23.6h-1.58L524.17,220Z"/><path class="cls-2" d="M605.45,235.91l-1.05,8.17h-25v-1.46c3.65,0,4.23-1.16,4.23-6.09V219.11c0-4.89-.58-6.09-4.23-6.09v-1.47h12.89V213c-3.69,0-4.26,1.2-4.26,6.09v18.31c0,3.91.35,5.2,4.75,5.2,6,0,8.58-2.27,11.51-7.25Z"/><path class="cls-2" d="M618.28,228.22v8.31c0,4.93.62,6.09,4.13,6.09v1.46H609.75v-1.46c3.51,0,4.13-1.16,4.13-6.09V219.19c0-3.6.22-6.17-4.13-6.17v-1.47h13.06c5.2,0,11.87,1.78,11.87,8.13,0,4.54-4.09,7.6-8.35,8.14l8,10.62c1.65,2.84,2.05,4.31,5.65,4.18v1.46h-7.38l-11.12-15.86Zm0-1.47h2.31c4.49.31,9.42-1.95,9.42-7.07,0-4.4-3.91-6.66-7.91-6.66-3.73,0-3.82,1.51-3.82,4.84Z"/><path class="cls-2" d="M662.75,218.88a9.62,9.62,0,0,0,1.64-3.95c0-2.09-2.26-1.78-3.73-1.91v-1.47h11V213c-3.64-.23-4.89,2.71-6.35,5.42L659,230.08v6.45c0,4.93.58,6.09,4.22,6.09v1.46H650.3v-1.46c3.69,0,4.27-1.16,4.27-6.09v-5l-7.15-12.67c-1.38-2.49-2.94-6-6.36-5.86v-1.47h13V213c-1.16,0-3.87-.18-3.87,1.55a10,10,0,0,0,1.29,2.94l6.27,10.75Z"/><path class="cls-1" d="M111.32,101.67a71.31,71.31,0,0,1,25.06,4.51l2.73-10.6a82.9,82.9,0,0,0-56,.13l2.72,10.61A71.63,71.63,0,0,1,111.32,101.67Z"/><path class="cls-1" d="M148,99.37l-2.78,10.82a71.64,71.64,0,1,1-68.19.2L74.25,99.56A82.54,82.54,0,1,0,148,99.37Z"/><path class="cls-1" d="M30.4,141.1A87.22,87.22,0,0,1,73.05,94.88l-2.4-9.32A82.67,82.67,0,0,0,30.4,141.1Z"/><path class="cls-1" d="M151.62,85.35l-2.4,9.35a87.25,87.25,0,0,1,43,46.4A82.65,82.65,0,0,0,151.62,85.35Z"/><path class="cls-1" d="M95.57,70.09a23.41,23.41,0,0,1-1.63-6.44,4.25,4.25,0,1,0-1.08,0A24.07,24.07,0,0,1,90.7,76a5.79,5.79,0,0,0,8.13-.37A23.43,23.43,0,0,1,95.57,70.09Z"/><path class="cls-1" d="M133.42,59.44a4.28,4.28,0,1,0-5.15,4.18,23.66,23.66,0,0,1-1.63,6.47,23.43,23.43,0,0,1-3.26,5.57,5.79,5.79,0,0,0,8.13.37,24,24,0,0,1-1.76-5.31,24.56,24.56,0,0,1-.4-7A4.27,4.27,0,0,0,133.42,59.44Z"/><path class="cls-1" d="M148,52.27a5.35,5.35,0,0,0-1.91,10.35c-3,4.11-9.68,20.12-19.59,17.89-9-2-14.08-22.48-14.5-25.67a5.31,5.31,0,1,0-1.43-.09c-.59,5.77-5.24,24.92-15,25.5C85,80.88,78.77,65.74,76.43,62.9a5.33,5.33,0,1,0-1.68.28,6,6,0,0,0,.75-.06l6.46,28a86.76,86.76,0,0,1,14.78-3.88,72.61,72.61,0,0,1,29.17,0A86,86,0,0,1,140.29,91l7-28A6.32,6.32,0,0,0,148,63a5.36,5.36,0,0,0,0-10.71ZM85.83,83.92,83.6,82.38l.29-2.87,2.39,1.67Zm25.69-3.72-3.68-5.55,3.59-6,3.76,6.08Zm25.85,3.72-.45-2.74,2.39-1.67.29,2.87Z"/><path class="cls-3" d="M119.62,111.1a65.94,65.94,0,0,0-20.28.61A61,61,0,0,0,54.21,148.1a75.45,75.45,0,0,0-3.34,9.47,80.47,80.47,0,0,0-1.95,9.87,59.81,59.81,0,0,0,.55,20,36,36,0,0,0,3.33,9.37c1.63,3,3.26,6,4.77,9.09s2.92,6.2,4.23,9.36,2.44,6.39,3.65,9.58l-2.15-4.65c-.71-1.55-1.39-3.11-2.15-4.64q-2.25-4.59-4.7-9.07c-1.63-3-3.35-5.91-5.11-8.84a36.66,36.66,0,0,1-3.83-9.75,50.07,50.07,0,0,1-1.41-10.33,72.25,72.25,0,0,1,.4-10.4,78.72,78.72,0,0,1,2-10.22,77,77,0,0,1,3.41-9.85A64.57,64.57,0,0,1,63.1,129.59a65.68,65.68,0,0,1,7.64-7.09,61.55,61.55,0,0,1,8.74-5.66c.76-.41,1.56-.76,2.33-1.15l1.17-.56c.4-.18.8-.34,1.2-.51.81-.32,1.6-.67,2.41-1l2.46-.84a63.71,63.71,0,0,1,10.08-2.32A60.47,60.47,0,0,1,119.62,111.1Z"/><path class="cls-3" d="M85.71,236.22a181.66,181.66,0,0,1-17.63-16.35c-.69-.72-1.37-1.46-2-2.2s-1.33-1.54-2-2.32c-1.25-1.58-2.46-3.19-3.65-4.8-2.39-3.21-4.72-6.5-7.13-9.64l1.22-.94c2.37,3.29,4.56,6.61,6.86,9.9,1.14,1.64,2.28,3.28,3.47,4.88.59.8,1.2,1.58,1.84,2.33s1.31,1.52,2,2.26A181.12,181.12,0,0,0,85.71,236.22Z"/><path class="cls-4" d="M116.45,114.39a75.09,75.09,0,0,0-10.43,2,83.68,83.68,0,0,0-10,3.38A63.27,63.27,0,0,0,78.16,130.7l-1,.87-.94.91c-.64.59-1.23,1.23-1.84,1.86a49.22,49.22,0,0,0-3.36,4,52.17,52.17,0,0,0-5.49,8.91q-1.14,2.35-2.07,4.83c-.63,1.64-1.17,3.31-1.64,5s-.88,3.42-1.23,5.16-.61,3.5-.92,5.25l.13-2.67q.07-1.33.21-2.67.27-2.67.8-5.31t1.33-5.22q.83-2.58,1.9-5.07a44.74,44.74,0,0,1,2.44-4.84,46.76,46.76,0,0,1,3-4.56,50.55,50.55,0,0,1,7.35-8,58.33,58.33,0,0,1,18.64-10.81,69.13,69.13,0,0,1,10.36-2.86A56.93,56.93,0,0,1,116.45,114.39Z"/><path class="cls-5" d="M125.65,115.61c-.11.78-.2,1.57-.32,2.35s-.25,1.58-.43,2.35a44.45,44.45,0,0,1-1.22,4.63,35.49,35.49,0,0,1-4.16,8.7,30.07,30.07,0,0,1-3,3.82,19.61,19.61,0,0,1-3.82,3.2,40.44,40.44,0,0,1-4.3,2.27c-1.42.69-2.8,1.38-4.15,2.15a63.86,63.86,0,0,0-7.68,5.24,77.62,77.62,0,0,0-7,6.15,65.31,65.31,0,0,0-6.14,7,45.79,45.79,0,0,0-7.92,16.45,42.8,42.8,0,0,0-.89,4.51c-.11.75-.21,1.53-.29,2.3s-.14,1.52-.19,2.29a42,42,0,0,0,.48,9.16,52.56,52.56,0,0,0,2.32,9,73,73,0,0,0,3.77,8.56q1.08,2.08,2.22,4.17c.75,1.41,1.5,2.76,2.31,4.11A77.33,77.33,0,0,0,96.81,238.8a66.85,66.85,0,0,1-12.9-14.05c-.9-1.31-1.76-2.69-2.57-4s-1.66-2.71-2.46-4.1A68.74,68.74,0,0,1,74.64,208a46.48,46.48,0,0,1-3.46-19.11l0-1.23.11-1.22c.08-.81.17-1.6.28-2.42a48.55,48.55,0,0,1,.91-4.81c.19-.8.42-1.59.64-2.37s.48-1.57.77-2.34a44.58,44.58,0,0,1,1.88-4.53A47.62,47.62,0,0,1,81,161.6a61.7,61.7,0,0,1,6.5-7.21,82.56,82.56,0,0,1,7.4-6.22,59.17,59.17,0,0,1,8.17-5.2c1.44-.75,2.92-1.43,4.37-2.06s2.88-1.24,4.19-2a17.52,17.52,0,0,0,3.6-2.71,31.53,31.53,0,0,0,3.06-3.46,32.55,32.55,0,0,0,2.55-3.89,43.14,43.14,0,0,0,2-4.22,47,47,0,0,0,1.57-4.45c.25-.75.43-1.52.65-2.28S125.47,116.38,125.65,115.61Z"/><path class="cls-6" d="M140.33,116.05a15.36,15.36,0,0,1,2.71,2,15.93,15.93,0,0,1,4.64,7.72,34.06,34.06,0,0,1,.82,9.49c0,.31,0,.6,0,.88a15.22,15.22,0,0,0,.26,4.06c.07.33.15.67.25,1a20.52,20.52,0,0,1-4.09-6.13,23,23,0,0,1-1.51-7.66,31.83,31.83,0,0,1-.08-3.49,8.92,8.92,0,0,0-.69-4.37,13.55,13.55,0,0,0-2.28-3.47m-5.26-2.92a16.67,16.67,0,0,1,3.22,2.31,14.31,14.31,0,0,1,3.38,4.49c1.05,2.37.37,3.37.68,7.53a24.12,24.12,0,0,0,1.6,8,22.1,22.1,0,0,0,5.23,7.38,24.59,24.59,0,0,0,3,2.53,14.18,14.18,0,0,1-2.49-5.4,17.62,17.62,0,0,1-.2-4.7,35.15,35.15,0,0,0-.86-9.79,16.66,16.66,0,0,0-13.6-12.33Z"/><path class="cls-7" d="M126.79,128.92A61.06,61.06,0,0,1,125.48,139c-.36,1.65-.81,3.3-1.27,4.92s-1,3.24-1.52,4.85a36.45,36.45,0,0,1-4.63,9.2,27,27,0,0,1-3.35,4,41.21,41.21,0,0,1-3.91,3.37c-1.36,1-2.74,2-4.12,3s-2.76,1.93-4.17,2.88-2.84,1.85-4.29,2.73-2.94,1.69-4.29,2.58a16.31,16.31,0,0,0-3.57,3.23,23.44,23.44,0,0,0-2.78,4.05,33.34,33.34,0,0,0-3.25,9.43,28.85,28.85,0,0,1,2.35-9.87,23.25,23.25,0,0,1,2.63-4.45,16.86,16.86,0,0,1,3.7-3.7c1.42-1,2.85-1.89,4.25-2.8s2.79-1.84,4.15-2.8c2.73-1.94,5.51-3.87,8.14-5.89a39.85,39.85,0,0,0,3.76-3.17,28.09,28.09,0,0,0,3.18-3.69,38.14,38.14,0,0,0,4.7-8.63c.63-1.54,1.18-3.11,1.74-4.7s1.1-3.15,1.57-4.76A85,85,0,0,0,126.79,128.92Z"/><path class="cls-8" d="M130,127.9a32,32,0,0,1,3.05,7.94c.37,1.37.7,2.75,1,4.13s.62,2.79.82,4.2a43.3,43.3,0,0,1-1.06,17.1c-.36,1.39-.79,2.77-1.28,4.13-.24.67-.5,1.34-.77,2s-.55,1.34-.86,2a41.74,41.74,0,0,1-4.52,7.4,57.73,57.73,0,0,1-12.49,11.84c-2.34,1.65-4.65,3.22-6.86,4.93a64.9,64.9,0,0,0-6.29,5.49,23.25,23.25,0,0,0-4.64,6.67,20,20,0,0,0-1.74,7.89,26,26,0,0,0,1.31,8.12c.41,1.32.91,2.62,1.45,3.92.27.66.57,1.28.85,1.92s.62,1.25,1,1.86a36.3,36.3,0,0,0,2.22,3.55,37.81,37.81,0,0,0,2.66,3.26,40.17,40.17,0,0,0,6.35,5.57A35.59,35.59,0,0,1,98.1,229.94c-.39-.6-.72-1.25-1.07-1.87s-.65-1.29-1-1.94c-.59-1.29-1.17-2.61-1.65-4a26.52,26.52,0,0,1-1.63-8.54A20.94,20.94,0,0,1,94.49,205a24.89,24.89,0,0,1,4.89-7.29c4-4.18,8.74-7.51,13.36-10.74a57.47,57.47,0,0,0,12.13-11.37,39.32,39.32,0,0,0,4.44-7c.61-1.22,1.14-2.53,1.65-3.83s1-2.61,1.35-3.94a44.28,44.28,0,0,0,1.6-16.56c-.13-1.4-.33-2.77-.58-4.17s-.51-2.78-.8-4.16-.63-2.75-1-4.1A22.81,22.81,0,0,0,130,127.9Z"/><path class="cls-8" d="M89.36,219.65a24.21,24.21,0,0,1,0-7.31,23.35,23.35,0,0,1,.83-3.59,17.14,17.14,0,0,1,1.45-3.42,27.26,27.26,0,0,1,4.55-5.86,23.75,23.75,0,0,1,6.06-4.44l.62,1.41A22.31,22.31,0,0,0,97,200.31a26.55,26.55,0,0,0-4.68,5.41,17,17,0,0,0-1.57,3.21,23.06,23.06,0,0,0-1,3.48A24.08,24.08,0,0,0,89.36,219.65Z"/><path class="cls-9" d="M103.67,207.83a60.2,60.2,0,0,0,8.7,3.36,40.18,40.18,0,0,0,8.93,1.55,65.28,65.28,0,0,0,9.17-.07c1.53-.12,3.05-.27,4.54-.5s3-.59,4.67-.81a17,17,0,0,1,5.15.14,17.37,17.37,0,0,0,2.11.28,5.86,5.86,0,0,0,1.86-.25,4.57,4.57,0,0,0,2.88-1.89,5,5,0,0,0,.59-3.44,3.5,3.5,0,0,0-.66-1.5c-.09-.1-.18-.2-.32-.33a5.36,5.36,0,0,1-.55-.61,2.73,2.73,0,0,1-.47-1,3.86,3.86,0,0,1-.11-.93,5.2,5.2,0,0,1,1.07-2.92,6.82,6.82,0,0,1,2.15-1.91,6.14,6.14,0,0,1,1.3-.53l.35-.12s0,0,0,0a.53.53,0,0,0,0-.36,2.33,2.33,0,0,0-.27-.71,1.78,1.78,0,0,0-.41-.51,2.36,2.36,0,0,0-.76-.27,6.58,6.58,0,0,0-1-.13,3.29,3.29,0,0,1-.54,0c-.18-.09-.36-.32-.6-.9h0v-.06c.54-.24,1-.45,1.46-.68A5.08,5.08,0,0,0,154,192a2,2,0,0,0,.51-.87c.05-.18.11-.4.17-.65l.18-.73a3.44,3.44,0,0,0,.11-1.11.65.65,0,0,0-.07-.27l-.15-.14-.54-.47c-.21-.19-.43-.4-.65-.62s-.42-.47-.59-.68-.35-.42-.52-.65a6.84,6.84,0,0,1-1-1.65,4.19,4.19,0,0,1-.27-2.26,4.49,4.49,0,0,1,.87-1.94,7.79,7.79,0,0,1,1.28-1.34,12.21,12.21,0,0,1,1.43-1,11,11,0,0,1,1.52-.78,2.66,2.66,0,0,0,.53-.29.33.33,0,0,0,.15-.2,1.13,1.13,0,0,0-.08-.82,6.39,6.39,0,0,0-.26-.6,4.76,4.76,0,0,0-.32-.51,5.13,5.13,0,0,0-.91-.89c-.36-.28-.78-.55-1.24-.89s-.88-.67-1.3-1c-.84-.7-1.63-1.4-2.4-2.07a32.33,32.33,0,0,1-2.4-2.2,20.72,20.72,0,0,1-2.22-2.58,12,12,0,0,1-1.65-3.21,15.34,15.34,0,0,1-.61-3.42l-.27-3.12v-.18l-.23-1.71c-.09-.64-.19-1.28-.29-1.92-.2-1.27-.44-2.54-.71-3.81s-.58-2.53-.92-3.74a17.05,17.05,0,0,0-1.55-3.36,50.87,50.87,0,0,0-4.39-6.41A72.55,72.55,0,0,0,130,127.9c1.05.8,2.08,1.63,3.06,2.52s2,1.77,2.89,2.73a51.73,51.73,0,0,1,5.18,6.11,18.78,18.78,0,0,1,2.05,3.64c.49,1.28.89,2.54,1.27,3.83s.71,2.58,1,3.89c.15.65.28,1.31.42,2l.18,1,.09.5,0,.25,0,.13v.07a2,2,0,0,1,0,.25v-.19a49.13,49.13,0,0,0,.91,5.95,13,13,0,0,0,3.07,4.62c.69.73,1.42,1.4,2.2,2.13s1.52,1.51,2.25,2.22c.36.36.72.71,1.09,1s.79.68,1.22,1.09a7.43,7.43,0,0,1,1.19,1.45,6,6,0,0,1,.44.88,9.06,9.06,0,0,1,.29.88,4.25,4.25,0,0,1,.14,1.06,2.75,2.75,0,0,1-.26,1.21,2.49,2.49,0,0,1-.86,1,5.17,5.17,0,0,1-.86.45,9.71,9.71,0,0,0-1.29.63,5.39,5.39,0,0,0-1.07.89,3,3,0,0,0-.94,2.07,2.05,2.05,0,0,0,.28.82,8.94,8.94,0,0,0,.72,1l.46.58a5.83,5.83,0,0,0,.45.51c.31.34.6.56,1.11,1.07a3.28,3.28,0,0,1,.75,1.15,3.31,3.31,0,0,1,.21,1.27,5.46,5.46,0,0,1-.45,2c-.11.27-.22.51-.34.76s-.24.53-.41.82A3.91,3.91,0,0,1,155,193.6a3.79,3.79,0,0,1-1.88.37,4,4,0,0,1-1.69-.5h0v-.05h0c.16-.6.37-.85.58-.94a2.23,2.23,0,0,1,.63,0,9.88,9.88,0,0,1,1.31.1,4.27,4.27,0,0,1,1.47.46,2.3,2.3,0,0,1,.41.28l.1.09.07.07a.93.93,0,0,1,.14.14,4.43,4.43,0,0,1,.47.6,4.34,4.34,0,0,1,.63,1.45,2.81,2.81,0,0,1-.24,1.93,2.21,2.21,0,0,1-.84.85,5,5,0,0,1-.73.33,4.12,4.12,0,0,0-.86.39,4.39,4.39,0,0,0-1.27,1.27,2.58,2.58,0,0,0-.48,1.45,1.17,1.17,0,0,0,0,.23c0,.05,0,0,0,.06s.41.35.77.74a6.22,6.22,0,0,1,1.38,2.7,7.71,7.71,0,0,1-.79,5.64,6.69,6.69,0,0,1-2,2.19,8.86,8.86,0,0,1-2.59,1.19,9.25,9.25,0,0,1-2.78.4,19.67,19.67,0,0,1-2.55-.28,13.71,13.71,0,0,0-4.23-.12c-1.4.19-3,.56-4.6.77s-3.21.39-4.81.47a58.61,58.61,0,0,1-9.64-.2,30.76,30.76,0,0,1-9.37-2.56A31.57,31.57,0,0,1,103.67,207.83Z"/><path class="cls-9" d="M103.27,233.19a40.86,40.86,0,0,1,7.45-10.77,42.84,42.84,0,0,1,5-4.37,50,50,0,0,1,5.51-3.71l.71,1.37a48.83,48.83,0,0,0-5.54,3.28,40.93,40.93,0,0,0-5.1,4,39.8,39.8,0,0,0-4.4,4.77A40.27,40.27,0,0,0,103.27,233.19Z"/></svg>