<svg xmlns="http://www.w3.org/2000/svg" xmlns:xlink="http://www.w3.org/1999/xlink" viewBox="0 0 1920 800"><defs><style>.cls-1{fill:none;}.cls-2{fill:url(#Degradado_sin_nombre_42);}.cls-3{clip-path:url(#clip-path);}.cls-4{fill:#eee6e0;}.cls-5{fill:#f1e0d6;}</style><linearGradient id="Degradado_sin_nombre_42" y1="397" x2="1920" y2="397" gradientUnits="userSpaceOnUse"><stop offset="0" stop-color="#f1e0d6"/><stop offset="0.79" stop-color="#fff"/><stop offset="1" stop-color="#f1e0d6"/></linearGradient><clipPath id="clip-path"><rect class="cls-1" y="-3" width="1920" height="803"/></clipPath></defs><g id="Capa_1" data-name="Capa 1"><g id="p2"><rect class="cls-2" y="-3" width="1920" height="800"/></g></g><g id="Capa_2" data-name="Capa 2"><g id="fondo_p2" data-name="fondo p2"><g class="cls-3"><path class="cls-4" d="M1487.67-237.83c2.81,10.69-11.91,44.12-41.48,110.55-50.25,112.91-66.7,133-83,191-17,60.67-26.85,95.71-16.45,135.68,21,80.64,108.69,121.08,182.37,155,109.92,50.69,178.88,49.19,344.72,119.17,33.74,14.24,82.32,36,99.41,83.27,10.31,28.53,10.88,71.13-13.59,94-20,18.77-48.84,16.76-85.82,13.64-40.56-3.42-69.57-13.5-102.27-25.12-136.35-48.45-146-53-173.79-58.15-53.77-10-86.25-16-120.87-2.15-37.37,14.93-69.71,50-110.85,165.82-61.31,172.6-33.57,218.78-74.38,285C1231,1128.44,1095.59,1146.13,972,1160.56,821.4,1178.16,100.12,1236.27-126,1055-497.06,757.41-423,7-107-226.84c91.09-67.41,662.49-72.68,1037.55-88.52C1104.57-322.71,1461.93-335.78,1487.67-237.83Z"/><path class="cls-5" d="M1040.68-243.57c91.19,64.76,62.23,140,187.38,381.9,43.36,83.78,70.51,120.51,110.85,218.95,41,100.16,61.45,151.55,55.07,216.07-10,101.71-76.89,170.16-129.45,224C1245.35,817,1147.83,914,982.75,958.13,938.89,969.85-137.76,1018.49-222,1000.75-467.76,949-163.59,261.77-68-88.32c45.82-167.8,659.71-166.25,874.1-199.76C830.29-291.86,947-310.11,1040.68-243.57Z"/></g></g></g></svg>